<svg width="88" height="72" viewBox="0 0 88 72" fill="none" xmlns="http://www.w3.org/2000/svg">
<path d="M28.6562 47.0625C28.6562 45.2917 28.0312 43.9375 26.7812 43C25.5312 42.0417 23.2812 41.0417 20.0312 40C16.7812 38.9375 14.2083 37.8958 12.3125 36.875C7.14583 34.0833 4.5625 30.3229 4.5625 25.5938C4.5625 23.1354 5.25 20.9479 6.625 19.0312C8.02083 17.0938 10.0104 15.5833 12.5938 14.5C15.1979 13.4167 18.1146 12.875 21.3438 12.875C24.5938 12.875 27.4896 13.4688 30.0312 14.6562C32.5729 15.8229 34.5417 17.4792 35.9375 19.625C37.3542 21.7708 38.0625 24.2083 38.0625 26.9375H28.6875C28.6875 24.8542 28.0312 23.2396 26.7188 22.0938C25.4062 20.9271 23.5625 20.3438 21.1875 20.3438C18.8958 20.3438 17.1146 20.8333 15.8438 21.8125C14.5729 22.7708 13.9375 24.0417 13.9375 25.625C13.9375 27.1042 14.6771 28.3438 16.1562 29.3438C17.6562 30.3438 19.8542 31.2812 22.75 32.1562C28.0833 33.7604 31.9688 35.75 34.4062 38.125C36.8438 40.5 38.0625 43.4583 38.0625 47C38.0625 50.9375 36.5729 54.0312 33.5938 56.2812C30.6146 58.5104 26.6042 59.625 21.5625 59.625C18.0625 59.625 14.875 58.9896 12 57.7188C9.125 56.4271 6.92708 54.6667 5.40625 52.4375C3.90625 50.2083 3.15625 47.625 3.15625 44.6875H12.5625C12.5625 49.7083 15.5625 52.2188 21.5625 52.2188C23.7917 52.2188 25.5312 51.7708 26.7812 50.875C28.0312 49.9583 28.6562 48.6875 28.6562 47.0625ZM81.4375 59H72.0625L53.8125 29.0625V59H44.4375V13.5H53.8125L72.0938 43.5V13.5H81.4375V59Z" fill="black"/>
<path d="M1 65.25H85.5625V68.375H1V65.25Z" fill="black"/>
<path d="M26.7812 43L26.1728 43.7937L26.1812 43.8L26.7812 43ZM20.0312 40L19.7205 40.9505L19.726 40.9523L20.0312 40ZM12.3125 36.875L11.8371 37.7548L11.8384 37.7555L12.3125 36.875ZM6.625 19.0312L5.81363 18.4467L5.81246 18.4483L6.625 19.0312ZM12.5938 14.5L12.2097 13.5767L12.207 13.5778L12.5938 14.5ZM30.0312 14.6562L29.6079 15.5623L29.6141 15.5651L30.0312 14.6562ZM35.9375 19.625L35.0992 20.1703L35.103 20.176L35.9375 19.625ZM38.0625 26.9375V27.9375H39.0625V26.9375H38.0625ZM28.6875 26.9375H27.6875V27.9375H28.6875V26.9375ZM26.7188 22.0938L26.0544 22.8412L26.0611 22.8471L26.7188 22.0938ZM15.8438 21.8125L16.4459 22.611L16.4541 22.6046L15.8438 21.8125ZM16.1562 29.3438L15.5962 30.1722L15.6015 30.1758L16.1562 29.3438ZM22.75 32.1562L22.4608 33.1135L22.462 33.1139L22.75 32.1562ZM33.5938 56.2812L34.1929 57.0819L34.1964 57.0792L33.5938 56.2812ZM12 57.7188L11.5902 58.6309L11.5957 58.6334L12 57.7188ZM5.40625 52.4375L4.57658 52.9958L4.58019 53.0011L5.40625 52.4375ZM3.15625 44.6875V43.6875H2.15625V44.6875H3.15625ZM12.5625 44.6875H13.5625V43.6875H12.5625V44.6875ZM26.7812 50.875L27.3638 51.6879L27.3726 51.6814L26.7812 50.875ZM29.6562 47.0625C29.6562 45.0249 28.9191 43.3534 27.3813 42.2L26.1812 43.8C27.1434 44.5216 27.6562 45.5584 27.6562 47.0625H29.6562ZM27.3897 42.2064C25.9925 41.1352 23.5985 40.0932 20.3365 39.0477L19.726 40.9523C22.964 41.9901 25.07 42.9481 26.1728 43.7936L27.3897 42.2064ZM20.342 39.0495C17.1197 37.9961 14.609 36.9758 12.7866 35.9945L11.8384 37.7555C13.8077 38.8158 16.4428 39.8789 19.7205 40.9505L20.342 39.0495ZM12.7879 35.9952C7.85202 33.3283 5.5625 29.8613 5.5625 25.5938H3.5625C3.5625 30.7846 6.43964 34.8384 11.8371 37.7548L12.7879 35.9952ZM5.5625 25.5938C5.5625 23.3351 6.1898 21.3534 7.43754 19.6142L5.81246 18.4483C4.3102 20.5424 3.5625 22.9357 3.5625 25.5938H5.5625ZM7.43637 19.6158C8.70702 17.852 10.5373 16.4468 12.9805 15.4222L12.207 13.5778C9.48355 14.7199 7.33464 16.3355 5.81363 18.4467L7.43637 19.6158ZM12.9778 15.4233C15.4439 14.3974 18.2275 13.875 21.3438 13.875V11.875C18.0017 11.875 14.9519 12.4359 12.2097 13.5767L12.9778 15.4233ZM21.3438 13.875C24.4706 13.875 27.2182 14.4457 29.608 15.5622L30.4545 13.7503C27.7609 12.4918 24.7169 11.875 21.3438 11.875V13.875ZM29.6141 15.5651C32.0003 16.6604 33.816 18.1976 35.0992 20.1703L36.7758 19.0797C35.2673 16.7608 33.1455 14.9854 30.4484 13.7474L29.6141 15.5651ZM35.103 20.176C36.4049 22.1481 37.0625 24.3916 37.0625 26.9375H39.0625C39.0625 24.0251 38.3034 21.3936 36.772 19.074L35.103 20.176ZM38.0625 25.9375H28.6875V27.9375H38.0625V25.9375ZM29.6875 26.9375C29.6875 24.6273 28.9491 22.7134 27.3764 21.3404L26.0611 22.8471C27.1134 23.7657 27.6875 25.081 27.6875 26.9375H29.6875ZM27.3831 21.3463C25.8315 19.9671 23.7202 19.3438 21.1875 19.3438V21.3438C23.4048 21.3438 24.981 21.8871 26.0544 22.8412L27.3831 21.3463ZM21.1875 19.3438C18.7669 19.3438 16.7402 19.8594 15.2334 21.0204L16.4541 22.6046C17.489 21.8073 19.0247 21.3438 21.1875 21.3438V19.3438ZM15.2417 21.0141C13.7218 22.1602 12.9375 23.7259 12.9375 25.625H14.9375C14.9375 24.3575 15.424 23.3815 16.4458 22.6109L15.2417 21.0141ZM12.9375 25.625C12.9375 27.5078 13.9071 29.0303 15.5962 30.1722L16.7163 28.5153C15.4471 27.6572 14.9375 26.7005 14.9375 25.625H12.9375ZM15.6015 30.1758C17.2202 31.2549 19.5253 32.2265 22.4608 33.1135L23.0392 31.199C20.183 30.336 18.0923 29.4326 16.711 28.5117L15.6015 30.1758ZM22.462 33.1139C27.7282 34.6978 31.4371 36.6282 33.7084 38.8412L35.1041 37.4088C32.5004 34.8718 28.4385 32.823 23.038 31.1986L22.462 33.1139ZM33.7084 38.8412C35.9441 41.0196 37.0625 43.7158 37.0625 47H39.0625C39.0625 43.2009 37.7434 39.9804 35.1041 37.4088L33.7084 38.8412ZM37.0625 47C37.0625 50.6439 35.7045 53.434 32.9911 55.4833L34.1964 57.0792C37.4414 54.6285 39.0625 51.2311 39.0625 47H37.0625ZM32.9946 55.4806C30.2405 57.5414 26.4639 58.625 21.5625 58.625V60.625C26.7445 60.625 30.9886 59.4795 34.1929 57.0819L32.9946 55.4806ZM21.5625 58.625C18.1859 58.625 15.1382 58.0126 12.4043 56.8041L11.5957 58.6334C14.6118 59.9666 17.9391 60.625 21.5625 60.625V58.625ZM12.4098 56.8066C9.67438 55.5776 7.6328 53.9267 6.23231 51.8739L4.58019 53.0011C6.22136 55.4066 8.57562 57.2765 11.5902 58.6309L12.4098 56.8066ZM6.23591 51.8792C4.85729 49.8304 4.15625 47.4455 4.15625 44.6875H2.15625C2.15625 47.8045 2.95521 50.5862 4.57659 52.9958L6.23591 51.8792ZM3.15625 45.6875H12.5625V43.6875H3.15625V45.6875ZM11.5625 44.6875C11.5625 47.4035 12.3824 49.6063 14.1707 51.1028C15.925 52.5708 18.4475 53.2188 21.5625 53.2188V51.2188C18.6775 51.2188 16.7 50.6115 15.4543 49.569C14.2426 48.5551 13.5625 46.9923 13.5625 44.6875H11.5625ZM21.5625 53.2188C23.9106 53.2188 25.8831 52.749 27.3638 51.6878L26.1987 50.0622C25.1794 50.7927 23.6727 51.2188 21.5625 51.2188V53.2188ZM27.3726 51.6814C28.8937 50.5659 29.6562 48.988 29.6562 47.0625H27.6562C27.6562 48.387 27.1688 49.3507 26.1899 50.0686L27.3726 51.6814ZM81.4375 59V60H82.4375V59H81.4375ZM72.0625 59L71.2086 59.5205L71.5009 60H72.0625V59ZM53.8125 29.0625L54.6664 28.542L52.8125 25.5009V29.0625H53.8125ZM53.8125 59V60H54.8125V59H53.8125ZM44.4375 59H43.4375V60H44.4375V59ZM44.4375 13.5V12.5H43.4375V13.5H44.4375ZM53.8125 13.5L54.6664 12.9796L54.3742 12.5H53.8125V13.5ZM72.0938 43.5L71.2398 44.0204L73.0938 47.0627V43.5H72.0938ZM72.0938 13.5V12.5H71.0938V13.5H72.0938ZM81.4375 13.5H82.4375V12.5H81.4375V13.5ZM81.4375 58H72.0625V60H81.4375V58ZM72.9164 58.4795L54.6664 28.542L52.9586 29.583L71.2086 59.5205L72.9164 58.4795ZM52.8125 29.0625V59H54.8125V29.0625H52.8125ZM53.8125 58H44.4375V60H53.8125V58ZM45.4375 59V13.5H43.4375V59H45.4375ZM44.4375 14.5H53.8125V12.5H44.4375V14.5ZM52.9586 14.0204L71.2398 44.0204L72.9477 42.9796L54.6664 12.9796L52.9586 14.0204ZM73.0938 43.5V13.5H71.0938V43.5H73.0938ZM72.0938 14.5H81.4375V12.5H72.0938V14.5ZM80.4375 13.5V59H82.4375V13.5H80.4375Z" fill="black"/>
<path d="M1 65.25V64.25H0V65.25H1ZM85.5625 65.25H86.5625V64.25H85.5625V65.25ZM85.5625 68.375V69.375H86.5625V68.375H85.5625ZM1 68.375H0V69.375H1V68.375ZM1 66.25H85.5625V64.25H1V66.25ZM84.5625 65.25V68.375H86.5625V65.25H84.5625ZM85.5625 67.375H1V69.375H85.5625V67.375ZM2 68.375V65.25H0V68.375H2Z" fill="black"/>
</svg>
